<svg width="42" height="47" viewBox="0 0 42 47" fill="none" xmlns="http://www.w3.org/2000/svg">
<path d="M32.6667 46.4168H9.33333C6.756 46.4168 4.66667 44.3648 4.66667 41.8335V12.0418H0V7.4585H9.33333V5.16683C9.33333 2.63552 11.4227 0.583496 14 0.583496H28C30.5773 0.583496 32.6667 2.63552 32.6667 5.16683V7.4585H42V12.0418H37.3333V41.8335C37.3333 44.3648 35.244 46.4168 32.6667 46.4168ZM9.33333 12.0418V41.8335H32.6667V12.0418H9.33333ZM14 5.16683V7.4585H28V5.16683H14ZM28 37.2502H23.3333V16.6252H28V37.2502ZM18.6667 37.2502H14V16.6252H18.6667V37.2502Z" fill="#2E3A59"/>
</svg>
